<?xml version="1.0" encoding="UTF-8" standalone="no"?>
<!-- Created with Inkscape (http://www.inkscape.org/) -->

<svg
   version="1.1"
   id="svg824"
   width="155.88406"
   height="144.30711"
   viewBox="0 0 155.88407 144.30711"
   sodipodi:docname="ship.svg"
   inkscape:version="1.1 (c68e22c387, 2021-05-23)"
   inkscape:export-filename="Y:\career\2.Consulting\Inkscape\logo.png"
   inkscape:export-xdpi="96"
   inkscape:export-ydpi="96"
   xmlns:inkscape="http://www.inkscape.org/namespaces/inkscape"
   xmlns:sodipodi="http://sodipodi.sourceforge.net/DTD/sodipodi-0.dtd"
   xmlns="http://www.w3.org/2000/svg"
   xmlns:svg="http://www.w3.org/2000/svg">
  <defs
     id="defs828">
    <inkscape:path-effect
       effect="skeletal"
       id="path-effect3374"
       is_visible="true"
       lpeversion="1"
       pattern="m 59.4277,43.818749 c 0,-8.136238 6.603339,-14.73956 14.739588,-14.73956 8.136218,0 14.739558,6.603322 14.739558,14.73956 0,8.136254 -6.60334,14.739579 -14.739558,14.739579 -8.136249,0 -14.739588,-6.603325 -14.739588,-14.739579 z"
       copytype="single_stretched"
       prop_scale="0.09"
       scale_y_rel="false"
       spacing="0"
       normal_offset="0"
       tang_offset="0"
       prop_units="false"
       vertical_pattern="false"
       hide_knot="false"
       fuse_tolerance="0" />
    <inkscape:path-effect
       effect="skeletal"
       id="path-effect3257"
       is_visible="true"
       lpeversion="1"
       pattern="M 0,18.867925 C 0,8.4528303 8.4528303,0 18.867925,0 c 10.415094,0 18.867924,8.4528303 18.867924,18.867925 0,10.415094 -8.45283,18.867924 -18.867924,18.867924 C 8.4528303,37.735849 0,29.283019 0,18.867925 Z"
       copytype="single_stretched"
       prop_scale="0.09"
       scale_y_rel="false"
       spacing="0"
       normal_offset="0"
       tang_offset="0"
       prop_units="false"
       vertical_pattern="false"
       hide_knot="false"
       fuse_tolerance="0" />
    <inkscape:path-effect
       effect="skeletal"
       id="path-effect3253"
       is_visible="true"
       lpeversion="1"
       pattern="M 0,18.867925 C 0,8.4528303 8.4528303,0 18.867925,0 c 10.415094,0 18.867924,8.4528303 18.867924,18.867925 0,10.415094 -8.45283,18.867924 -18.867924,18.867924 C 8.4528303,37.735849 0,29.283019 0,18.867925 Z"
       copytype="single_stretched"
       prop_scale="0.09"
       scale_y_rel="false"
       spacing="0"
       normal_offset="0"
       tang_offset="0"
       prop_units="false"
       vertical_pattern="false"
       hide_knot="false"
       fuse_tolerance="0" />
    <inkscape:path-effect
       effect="skeletal"
       id="path-effect3249"
       is_visible="true"
       lpeversion="1"
       pattern="m 59.4277,43.818749 c 0,-8.136238 6.603339,-14.73956 14.739588,-14.73956 8.136218,0 14.739558,6.603322 14.739558,14.73956 0,8.136254 -6.60334,14.739579 -14.739558,14.739579 -8.136249,0 -14.739588,-6.603325 -14.739588,-14.739579 z"
       copytype="single_stretched"
       prop_scale="0.09"
       scale_y_rel="false"
       spacing="0"
       normal_offset="0"
       tang_offset="0"
       prop_units="false"
       vertical_pattern="false"
       hide_knot="false"
       fuse_tolerance="0" />
    <inkscape:path-effect
       effect="skeletal"
       id="path-effect3245"
       is_visible="true"
       lpeversion="1"
       pattern="m 59.4277,43.818749 c 0,-8.136238 6.603339,-14.73956 14.739588,-14.73956 8.136218,0 14.739558,6.603322 14.739558,14.73956 0,8.136254 -6.60334,14.739579 -14.739558,14.739579 -8.136249,0 -14.739588,-6.603325 -14.739588,-14.739579 z"
       copytype="single_stretched"
       prop_scale="0.09"
       scale_y_rel="false"
       spacing="0"
       normal_offset="0"
       tang_offset="0"
       prop_units="false"
       vertical_pattern="false"
       hide_knot="false"
       fuse_tolerance="0" />
    <inkscape:path-effect
       effect="skeletal"
       id="path-effect3241"
       is_visible="true"
       lpeversion="1"
       pattern="M 0,18.867925 C 0,8.4528303 8.4528303,0 18.867925,0 c 10.415094,0 18.867924,8.4528303 18.867924,18.867925 0,10.415094 -8.45283,18.867924 -18.867924,18.867924 C 8.4528303,37.735849 0,29.283019 0,18.867925 Z"
       copytype="single_stretched"
       prop_scale="0.09"
       scale_y_rel="false"
       spacing="0"
       normal_offset="0"
       tang_offset="0"
       prop_units="false"
       vertical_pattern="false"
       hide_knot="false"
       fuse_tolerance="0" />
    <inkscape:path-effect
       effect="skeletal"
       id="path-effect2805"
       is_visible="true"
       lpeversion="1"
       pattern="m 59.4277,43.818749 c 0,-8.136238 6.603339,-14.73956 14.739588,-14.73956 8.136218,0 14.739558,6.603322 14.739558,14.73956 0,8.136254 -6.60334,14.739579 -14.739558,14.739579 -8.136249,0 -14.739588,-6.603325 -14.739588,-14.739579 z"
       copytype="single_stretched"
       prop_scale="0.09"
       scale_y_rel="false"
       spacing="0"
       normal_offset="0"
       tang_offset="0"
       prop_units="false"
       vertical_pattern="false"
       hide_knot="false"
       fuse_tolerance="0" />
    <inkscape:path-effect
       effect="skeletal"
       id="path-effect2597"
       is_visible="true"
       lpeversion="1"
       pattern="m 59.4277,43.818749 c 0,-8.136238 6.603339,-14.73956 14.739588,-14.73956 8.136218,0 14.739558,6.603322 14.739558,14.73956 0,8.136254 -6.60334,14.739579 -14.739558,14.739579 -8.136249,0 -14.739588,-6.603325 -14.739588,-14.739579 z"
       copytype="single_stretched"
       prop_scale="0.09"
       scale_y_rel="false"
       spacing="0"
       normal_offset="0"
       tang_offset="0"
       prop_units="false"
       vertical_pattern="false"
       hide_knot="false"
       fuse_tolerance="0" />
    <inkscape:path-effect
       effect="skeletal"
       id="path-effect2313"
       is_visible="true"
       lpeversion="1"
       pattern="m 59.4277,43.818749 c 0,-8.136238 6.603339,-14.73956 14.739588,-14.73956 8.136218,0 14.739558,6.603322 14.739558,14.73956 0,8.136254 -6.60334,14.739579 -14.739558,14.739579 -8.136249,0 -14.739588,-6.603325 -14.739588,-14.739579 z"
       copytype="single_stretched"
       prop_scale="0.09"
       scale_y_rel="false"
       spacing="0"
       normal_offset="0"
       tang_offset="0"
       prop_units="false"
       vertical_pattern="false"
       hide_knot="false"
       fuse_tolerance="0" />
    <inkscape:path-effect
       effect="skeletal"
       id="path-effect2143"
       is_visible="true"
       lpeversion="1"
       pattern="m 64.167272,43.028819 c 0,-8.136236 6.603345,-14.739558 14.739589,-14.739558 8.13622,0 14.739561,6.603322 14.739561,14.739558 0,8.136255 -6.603341,14.73958 -14.739561,14.73958 -8.136244,0 -14.739589,-6.603325 -14.739589,-14.73958 z"
       copytype="single_stretched"
       prop_scale="0.09"
       scale_y_rel="false"
       spacing="0"
       normal_offset="0"
       tang_offset="0"
       prop_units="false"
       vertical_pattern="false"
       hide_knot="false"
       fuse_tolerance="0" />
    <inkscape:path-effect
       effect="skeletal"
       id="path-effect1783"
       is_visible="true"
       lpeversion="1"
       pattern="m 59.4277,43.818749 c 0,-8.136238 6.603339,-14.73956 14.739588,-14.73956 8.136218,0 14.739558,6.603322 14.739558,14.73956 0,8.136254 -6.60334,14.739579 -14.739558,14.739579 -8.136249,0 -14.739588,-6.603325 -14.739588,-14.739579 z"
       copytype="single_stretched"
       prop_scale="0.09"
       scale_y_rel="false"
       spacing="0"
       normal_offset="0"
       tang_offset="0"
       prop_units="false"
       vertical_pattern="false"
       hide_knot="false"
       fuse_tolerance="0" />
    <inkscape:path-effect
       effect="skeletal"
       id="path-effect1613"
       is_visible="true"
       lpeversion="1"
       pattern="m 59.4277,43.818749 c 0,-8.136238 6.603339,-14.73956 14.739588,-14.73956 8.136218,0 14.739558,6.603322 14.739558,14.73956 0,8.136254 -6.60334,14.739579 -14.739558,14.739579 -8.136249,0 -14.739588,-6.603325 -14.739588,-14.739579 z"
       copytype="single_stretched"
       prop_scale="1"
       scale_y_rel="false"
       spacing="0"
       normal_offset="0"
       tang_offset="0"
       prop_units="false"
       vertical_pattern="false"
       hide_knot="false"
       fuse_tolerance="0" />
    <inkscape:path-effect
       effect="skeletal"
       id="path-effect1510"
       is_visible="true"
       lpeversion="1"
       pattern="M 0,18.867925 C 0,8.4528303 8.4528303,0 18.867925,0 c 10.415094,0 18.867924,8.4528303 18.867924,18.867925 0,10.415094 -8.45283,18.867924 -18.867924,18.867924 C 8.4528303,37.735849 0,29.283019 0,18.867925 Z"
       copytype="single_stretched"
       prop_scale="1"
       scale_y_rel="false"
       spacing="0"
       normal_offset="0"
       tang_offset="0"
       prop_units="false"
       vertical_pattern="false"
       hide_knot="false"
       fuse_tolerance="0" />
  </defs>
  <sodipodi:namedview
     id="namedview826"
     pagecolor="#ffffff"
     bordercolor="#666666"
     borderopacity="1.0"
     inkscape:pageshadow="2"
     inkscape:pageopacity="0.0"
     inkscape:pagecheckerboard="false"
     showgrid="false"
     inkscape:zoom="2"
     inkscape:cx="72.25"
     inkscape:cy="24.25"
     inkscape:window-width="1920"
     inkscape:window-height="909"
     inkscape:window-x="-8"
     inkscape:window-y="-8"
     inkscape:window-maximized="1"
     inkscape:current-layer="g830"
     fit-margin-top="0"
     fit-margin-left="0"
     fit-margin-right="0"
     fit-margin-bottom="0" />
  <g
     inkscape:groupmode="layer"
     inkscape:label="Image"
     id="g830"
     transform="translate(-124.05454,-85.758913)">
    <path
       style="fill:#0000ff;stroke:none;stroke-width:0.742672px;stroke-linecap:butt;stroke-linejoin:miter;stroke-opacity:1"
       d="m 124.05522,204.14069 c 0.0897,-0.59735 9.06007,0.70267 23.57371,1.62023 14.63975,0.92554 34.46985,1.25109 56.42005,-2.31973 1.70506,-0.27736 3.39391,-0.57345 5.0668,-0.88778 1e-5,0 1e-5,0 1e-5,0 20.8668,-3.91273 38.0427,-10.51835 50.75948,-16.34604 12.45736,-5.70879 19.78676,-10.07895 20.05572,-9.57641 0.26898,0.50256 -6.59722,5.81255 -18.91691,12.31534 -12.5331,6.61543 -29.97879,13.86075 -51.2093,17.91979 0,0 -2e-5,0 -2e-5,0 -1.70397,0.32514 -3.4245,0.62898 -5.16148,0.91084 -22.36039,3.62847 -42.54533,2.81162 -57.25093,1.07737 -14.59997,-1.72179 -23.42692,-4.11623 -23.33713,-4.71361 z"
       id="path1611"
       sodipodi:nodetypes="cc" />
    <path
       style="fill:#0000ff;stroke:none;stroke-width:0.95295px;stroke-linecap:butt;stroke-linejoin:miter;stroke-opacity:1"
       d="m 261.42649,198.08999 c 0.48663,0.44693 -2.02208,5.15698 -4.30895,13.68934 -1.34697,4.39708 -2.60232,10.10801 -2.95856,16.68071 0,0 0,0 0,0 -14.53677,-0.59779 -33.46904,-1.1571 -55.66394,-0.90171 -27.02342,0.31095 -46.38357,1.63435 -62.54722,2.50769 -3.8172,-1.51234 -6.38689,-4.69325 -7.86467,-7.73186 -3.18523,-6.9746 -2.87632,-11.50774 -2.37652,-11.70194 0.49979,-0.19421 1.3725,4.34463 4.7386,9.51602 1.29106,2.10059 3.32868,4.22034 5.83616,4.85974 15.14146,-2.44454 35.65085,-4.02608 60.97498,-3.44949 20.99724,0.47804 40.58635,2.3261 54.7849,3.96486 0,0 0,0 0,0 -0.38376,-6.13993 0.65997,-11.42096 2.09543,-15.43576 3.47191,-8.87715 6.8032,-12.44449 7.28979,-11.9976 z"
       id="path1781"
       sodipodi:nodetypes="cccc" />
    <path
       style="fill:#0000ff;stroke:none;stroke-width:0.673758px;stroke-linecap:butt;stroke-linejoin:miter;stroke-opacity:1"
       d="m 229.39745,112.91618 c 0.55246,-0.27366 3.31526,4.98827 7.52688,13.72633 4.01742,8.33514 10.10185,21.32096 16.79025,33.86233 4.07053,7.63267 7.94243,14.33509 11.72932,20.38227 -8.57343,2.46631 -16.35647,0.33114 -20.73016,-1.34911 -4.70355,-1.80698 -7.05887,-3.5414 -6.88638,-3.96778 0.17246,-0.42638 2.87676,0.52781 7.45276,2.08081 4.15811,1.41118 11.4731,3.85013 18.10402,2.40298 -4.08129,-5.84916 -8.30614,-12.37594 -12.55386,-19.65016 -14.47331,-24.78547 -22.53775,-46.94035 -21.43283,-47.48767 z"
       id="path2141"
       sodipodi:nodetypes="ccc" />
    <path
       style="fill:#0000ff;stroke:none;stroke-width:0.553909px;stroke-linecap:butt;stroke-linejoin:miter;stroke-opacity:1"
       d="m 221.60676,133.50353 c 0.36989,-0.0365 1.02811,3.3426 1.8392,8.99692 0.70016,4.88091 1.86673,14.3493 3.81183,22.34829 0,0 0,0 0,0 0.699,2.86795 1.55464,5.85359 2.69071,8.74751 0.5643,1.43748 1.18373,2.81702 1.87019,4.13827 1.89468,4.40203 4.3206,8.05563 7.2009,10.72347 -7.442,1.22393 -13.40242,0.93253 -17.72674,0.13005 -4.2043,-0.78021 -6.43239,-1.90962 -6.3357,-2.20799 0.0967,-0.29838 2.46985,0.2965 6.5127,0.96019 4.171,0.68474 9.66766,1.27398 16.52605,0.83768 -3.51858,-2.19432 -6.56942,-5.25367 -8.93894,-9.00067 -0.75046,-1.42486 -1.42227,-2.90464 -2.02531,-4.43593 -1.21582,-3.08727 -2.0865,-6.21844 -2.74985,-9.20065 0,0 0,-1e-5 0,-1e-5 -1.93019,-8.65739 -2.53816,-17.57517 -2.7937,-22.85324 -0.277,-5.72103 -0.25124,-9.14732 0.11866,-9.18389 z"
       id="path2311"
       sodipodi:nodetypes="ccc" />
    <path
       style="fill:#0000ff;stroke:none;stroke-width:0.710133px;stroke-linecap:butt;stroke-linejoin:miter;stroke-opacity:1"
       d="m 204.07269,199.31163 c -0.36907,0.0472 -2.33473,-5.69891 -2.47346,-15.5234 -0.14178,-10.03926 1.91733,-23.5465 9.70467,-38.78599 -4.8737,-2.54611 -10.12607,-5.20014 -15.65441,-7.38335 -2.95947,-1.43431 -6.05616,-2.7796 -9.26677,-3.94947 -4.01876,-1.46435 -8.07599,-2.60285 -12.17845,-3.33822 0,0 -1e-5,0 -1e-5,1e-5 -0.96294,21.02498 -1.97473,34.43447 -5.36325,48.24201 -2.94164,11.98652 -6.56253,18.95796 -6.96425,18.85611 -0.4017,-0.10181 2.51078,-7.23614 5.17797,-19.3946 3.17718,-14.48326 4.21666,-27.09721 5.80272,-49.03149 0,0 0,-2e-5 0,-2e-5 4.69867,0.55239 9.3395,1.50993 13.91332,2.7993 3.65478,1.0303 7.16293,2.2432 10.49759,3.55638 5.90483,2.80764 11.42657,6.0511 16.45148,9.08978 -7.61863,15.4057 -9.89181,28.96704 -10.22773,39.09223 -0.32838,9.8985 0.94966,15.72354 0.58058,15.77072 z"
       id="path2595"
       sodipodi:nodetypes="cccc" />
    <path
       style="fill:#0000ff;stroke:none;stroke-width:0.752159px;stroke-linecap:butt;stroke-linejoin:miter;stroke-opacity:1"
       d="m 159.72752,192.93719 c 0.10598,0.39629 -3.28967,1.59886 -9.71558,1.75515 0,0 0,0 0,0 -4.86839,-0.0725 -10.42904,-0.82589 -17.69428,-2.43875 2.81051,-10.1015 5.6382,-22.59056 7.51694,-37.33189 1.65709,-13.00213 2.18039,-24.66394 2.21055,-34.3429 0,0 0,0 0,0 6.11141,0.2904 11.01233,0.73682 15.5548,1.9526 10.04273,3.45825 12.92415,8.52635 12.38635,8.86187 -0.53779,0.33552 -4.53921,-3.90347 -13.7088,-6.23018 -3.72452,-1.27981 -7.15729,-1.8685 -12.2086,-2.80827 0,0 -1e-5,0 -1e-5,0 0.40072,9.47073 0.25505,20.63642 -1.2152,32.89439 -1.66569,13.88719 -4.63213,25.83901 -7.86508,35.72456 6.44427,0.88506 10.5405,1.3079 15.12365,1.49479 0,0 0,0 0,0 5.94447,0.49065 9.50936,0.0724 9.61526,0.46863 z"
       id="path2803"
       sodipodi:nodetypes="cccc" />
    <path
       style="fill:#0000ff;stroke:none;stroke-width:0.970136px;stroke-linecap:butt;stroke-linejoin:miter;stroke-opacity:1"
       d="m 169.20697,89.183517 c 0.84359,0.12528 0.62426,7.87652 0.66497,17.414983 6.3e-4,0.26468 0.006,1.27155 0.007,1.53623 0,0 0,0 0,0 0.0184,3.79566 0.0439,5.98074 0.11554,8.93371 0.11409,4.12319 0.36562,6.675 -0.10649,6.85579 -0.54688,0.20936 -1.65063,-2.30708 -2.32535,-6.5594 -0.42399,-2.63457 -0.68373,-5.68218 -0.7535,-9.18 0,0 0,0 0,0 -0.0101,-0.5166 -0.0173,-1.03973 -0.0195,-1.5686 -0.0446,-9.824034 1.52512,-17.565272 2.41775,-17.432713 z"
       id="path3243"
       sodipodi:nodetypes="cc" />
    <path
       style="fill:#0000ff;stroke:none;stroke-width:0.928766px;stroke-linecap:butt;stroke-linejoin:miter;stroke-opacity:1"
       d="m 187.85216,85.970235 c 0.52112,0.0085 0.84552,2.846051 0.99143,7.278519 0,0 0,10e-7 0,10e-7 0.12005,3.661855 0.16461,7.130285 0.28452,10.792145 0,0 0,0 0,0 0.0442,1.30155 0.0946,2.64712 0.15648,4.01658 0.29752,6.57344 0.74504,11.01696 1.31104,15.4692 0.50213,3.94995 0.87494,6.42094 0.39807,6.51224 -0.47689,0.0914 -1.72168,-2.24032 -2.87649,-6.19064 -1.20442,-4.11998 -2.10632,-9.34825 -2.39072,-15.69163 -0.0625,-1.39319 -0.0918,-2.75641 -0.0954,-4.07629 0,0 0,0 0,0 -0.0132,-4.142165 0.24538,-7.929999 0.58241,-10.897524 0,0 0,0 0,0 0.50655,-4.469565 1.11743,-7.221051 1.63852,-7.212601 z"
       id="path3247"
       sodipodi:nodetypes="cc" />
    <path
       style="fill:#0000ff;stroke:none;stroke-width:0.771276px;stroke-linecap:butt;stroke-linejoin:miter;stroke-opacity:1"
       d="m 212.79942,85.759519 c 0.72351,0.09994 -0.61389,11.601563 0.30156,25.664891 0.91547,14.06328 3.81163,25.26941 3.10877,25.46488 -0.70845,0.19702 -4.80332,-10.80974 -5.74803,-25.30009 -0.94476,-14.492032 1.63925,-25.926162 2.3377,-25.829681 z"
       id="path3372"
       sodipodi:nodetypes="cc" />
    <text
       xml:space="preserve"
       style="font-style:normal;font-weight:normal;font-size:40px;line-height:1.25;font-family:sans-serif;fill:#000000;fill-opacity:1;stroke:none"
       x="135"
       y="206.5"
       id="text7420"><tspan
         sodipodi:role="line"
         id="tspan7418"
         x="135"
         y="206.5" /></text>
    <text
       xml:space="preserve"
       style="font-style:normal;font-weight:normal;font-size:21.3333px;line-height:1.25;font-family:sans-serif;fill:#000000;fill-opacity:1;stroke:none"
       x="121"
       y="238"
       id="text8656"><tspan
         sodipodi:role="line"
         id="tspan8654"
         x="121"
         y="238" /></text>
  </g>
</svg>
